# xmcd
# Track frame offsets:
# 150
# 13813
# 26925
# 42800
# 55575
# 65488
# 77300
# 87863
# 97688
# 110738
#
# Disc length: 1636 seconds
# Revision: 0
# Processed by: cddbd v1.4PL0 Copyright (c) Steve Scherf et al.
# Submitted via: VisiTrax 2.9.5.180 - For more info visit www.synapsa.com
#
DISCID=7006620a
DTITLE=Arne Benoni - Made In Nashville
DYEAR=1900
DGENRE=
TTITLE0=Distant Drums
TTITLE1=If Heartache Is The Fasion
TTITLE2=Is This Me
TTITLE3=Am I Losing You
TTITLE4=I Won`t Forget You
TTITLE5=Yonders Comes A Sucker
TTITLE6=In A Mansion Stands My Love
TTITLE7=Billy Bajou
TTITLE8=Then I`ll Stop Loving You
TTITLE9=Partners
EXTD=Norsk Country
EXTT0=
EXTT1=
EXTT2=
EXTT3=
EXTT4=
EXTT5=
EXTT6=
EXTT7=
EXTT8=
EXTT9=
PLAYORDER=
